<svg xmlns="http://www.w3.org/2000/svg" width="289.346" height="257.998" viewBox="0 0 289.346 257.998">
  <g id="다각형_1" data-name="다각형 1" fill="none" stroke-linecap="round" opacity="0.18">
    <path d="M134.206,18.666a12,12,0,0,1,20.933,0L279.326,240.129A12,12,0,0,1,268.859,258H20.487A12,12,0,0,1,10.02,240.129Z" stroke="none"/>
    <path d="M 144.6728363037109 22.53477478027344 C 143.8954772949219 22.53477478027344 143.3085632324219 22.87855529785156 142.9283752441406 23.55654907226562 L 18.742431640625 245.0201416015625 C 18.37039184570312 245.6836395263672 18.37664794921875 246.3528747558594 18.76116943359375 247.0092315673828 C 19.14559936523438 247.6655578613281 19.7261962890625 247.9983673095703 20.48687744140625 247.9983673095703 L 268.8587951660156 247.9983673095703 C 269.6194763183594 247.9983673095703 270.2000732421875 247.6656036376953 270.5845336914062 247.0092315673828 C 270.9689636230469 246.3528747558594 270.9752502441406 245.6836395263672 270.6032104492188 245.0201416015625 L 146.4172973632812 23.55659484863281 C 146.037109375 22.87855529785156 145.4501495361328 22.53477478027344 144.6728363037109 22.53477478027344 M 144.6728363037109 12.53477478027344 C 148.76025390625 12.53477478027344 152.8476715087891 14.578369140625 155.1395568847656 18.66555786132812 L 279.3254699707031 240.129150390625 C 283.8109741210938 248.1282348632812 278.0296630859375 257.9983825683594 268.8587951660156 257.9983825683594 L 20.48687744140625 257.9983825683594 C 11.31600952148438 257.9983825683594 5.534698486328125 248.1282348632812 10.0201416015625 240.129150390625 L 134.2061157226562 18.66555786132812 C 136.4980010986328 14.578369140625 140.5854187011719 12.53477478027344 144.6728363037109 12.53477478027344 Z" stroke="none" fill="#fff"/>
  </g>
</svg>
