<svg xmlns="http://www.w3.org/2000/svg" width="144.14" height="143.766" viewBox="0 0 144.14 143.766">
  <g id="다각형_8" data-name="다각형 8" transform="matrix(0.719, -0.695, 0.695, 0.719, 0, 75.97)" fill="none" stroke-linecap="round" opacity="0.25">
    <path d="M44.3,17.89a12,12,0,0,1,20.759,0L98.907,76.226a12,12,0,0,1-10.38,18.022H20.836a12,12,0,0,1-10.38-18.022Z" stroke="none"/>
    <path d="M 54.68162536621094 21.9119873046875 C 53.91730880737305 21.9119873046875 53.33528518676758 22.2471923828125 52.95171737670898 22.9083251953125 L 19.10580444335938 81.24435424804688 C 18.72083282470703 81.90789794921875 18.71976470947266 82.5814208984375 19.10262298583984 83.24619293212891 C 19.48548889160156 83.91094207763672 20.06858062744141 84.24800872802734 20.83571624755859 84.24800872802734 L 88.52751159667969 84.24803161621094 C 89.29464721679688 84.24803161621094 89.87776184082031 83.91096496582031 90.26062774658203 83.24619293212891 C 90.64349365234375 82.5814208984375 90.64242553710938 81.90789794921875 90.25742340087891 81.24435424804688 L 56.41155624389648 22.9083251953125 C 56.0279655456543 22.24721527099609 55.44594192504883 21.9119873046875 54.68162536621094 21.9119873046875 M 54.68162536621094 11.91199493408203 C 58.71527862548828 11.91199493408203 62.74893188476562 13.90463256835938 65.06114959716797 17.88991546630859 L 98.90703582763672 76.22593688964844 C 103.5485382080078 84.22592163085938 97.77646636962891 94.24803161621094 88.52751159667969 94.24803161621094 L 20.83571624755859 94.24800872802734 C 11.58678436279297 94.24803161621094 5.814712524414062 84.22592163085938 10.45621490478516 76.22593688964844 L 44.30210113525391 17.88991546630859 C 46.61431884765625 13.90463256835938 50.64797210693359 11.91199493408203 54.68162536621094 11.91199493408203 Z" stroke="none" fill="#967eab"/>
  </g>
</svg>
