<svg xmlns="http://www.w3.org/2000/svg" width="218.824" height="221.107" viewBox="0 0 218.824 221.107">
  <g id="다각형_3" data-name="다각형 3" transform="translate(108.938) rotate(49)" fill="none" stroke-linecap="round" opacity="0.25">
    <path d="M73.367,17.89a12,12,0,0,1,20.759,0l62.911,108.432a12,12,0,0,1-10.38,18.022H20.836a12,12,0,0,1-10.38-18.022Z" stroke="none"/>
    <path d="M 83.74684143066406 21.91200256347656 C 82.98252105712891 21.91200256347656 82.40048980712891 22.24720764160156 82.01692962646484 22.9083251953125 L 19.10578918457031 131.3404998779297 C 18.72080993652344 132.0040283203125 18.71975708007812 132.6775360107422 19.10260009765625 133.3423004150391 C 19.48545837402344 134.0070953369141 20.06857299804688 134.3441772460938 20.83572387695312 134.3441772460938 L 146.657958984375 134.3441772460938 C 147.4251098632812 134.3441772460938 148.0081939697266 134.0071258544922 148.3910522460938 133.3423614501953 C 148.77392578125 132.6775665283203 148.7728424072266 132.0040588378906 148.3878479003906 131.3404998779297 L 85.47678375244141 22.9083251953125 C 85.09319305419922 22.24720764160156 84.51116180419922 21.91200256347656 83.74684143066406 21.91200256347656 M 83.74683380126953 11.91200256347656 C 87.78048706054688 11.91200256347656 91.81414794921875 13.90463256835938 94.12637329101562 17.88990783691406 L 157.0374603271484 126.3220901489258 C 161.678955078125 134.3220672607422 155.9069061279297 144.3441772460938 146.657958984375 144.3441772460938 L 20.83572387695312 144.3441772460938 C 11.58677673339844 144.3441467285156 5.814697265625 134.3220672607422 10.45619201660156 126.3220901489258 L 73.3673095703125 17.88990783691406 C 75.67951965332031 13.90463256835938 79.71317291259766 11.91200256347656 83.74683380126953 11.91200256347656 Z" stroke="none" fill="#967eab"/>
  </g>
</svg>
