<svg xmlns="http://www.w3.org/2000/svg" width="479.933" height="380.558" viewBox="0 0 479.933 380.558">
  <g id="그룹_19" data-name="그룹 19" transform="matrix(0.695, 0.719, -0.719, 0.695, -42.4, -843.282)" opacity="0.58">
    <g id="다각형_3" data-name="다각형 3" transform="matrix(0.719, -0.695, 0.695, 0.719, 989.409, 462.036)" fill="none" stroke-linecap="round" opacity="0.25">
      <path d="M73.367,17.89a12,12,0,0,1,20.759,0l62.911,108.432a12,12,0,0,1-10.38,18.022H20.836a12,12,0,0,1-10.38-18.022Z" stroke="none"/>
      <path d="M 83.74684143066406 21.91200256347656 C 82.98252105712891 21.91200256347656 82.40048980712891 22.24720764160156 82.01692962646484 22.9083251953125 L 19.10578918457031 131.3404998779297 C 18.72080993652344 132.0040283203125 18.71975708007812 132.6775360107422 19.10260009765625 133.3423004150391 C 19.48545837402344 134.0070953369141 20.06857299804688 134.3441772460938 20.83572387695312 134.3441772460938 L 146.657958984375 134.3441772460938 C 147.4251098632812 134.3441772460938 148.0081939697266 134.0071258544922 148.3910522460938 133.3423614501953 C 148.77392578125 132.6775665283203 148.7728424072266 132.0040588378906 148.3878479003906 131.3404998779297 L 85.47678375244141 22.9083251953125 C 85.09319305419922 22.24720764160156 84.51116180419922 21.91200256347656 83.74684143066406 21.91200256347656 M 83.74683380126953 11.91200256347656 C 87.78048706054688 11.91200256347656 91.81414794921875 13.90463256835938 94.12637329101562 17.88990783691406 L 157.0374603271484 126.3220901489258 C 161.678955078125 134.3220672607422 155.9069061279297 144.3441772460938 146.657958984375 144.3441772460938 L 20.83572387695312 144.3441772460938 C 11.58677673339844 144.3441467285156 5.814697265625 134.3220672607422 10.45619201660156 126.3220901489258 L 73.3673095703125 17.88990783691406 C 75.67951965332031 13.90463256835938 79.71317291259766 11.91200256347656 83.74683380126953 11.91200256347656 Z" stroke="none" fill="#967eab"/>
    </g>
    <g id="패스_24" data-name="패스 24" transform="matrix(0.53, -0.848, 0.848, 0.53, 682.911, 608.685)" fill="none" stroke-linecap="round" opacity="0.09">
      <path d="M163.273,9.961c5.135-9.23,18.365-8.989,23.833.433L353.45,297c5.478,9.438-.937,21.005-11.541,20.812L19.357,311.95c-10.6-.193-17.436-12-12.292-21.246Z" stroke="none"/>
      <path d="M 174.8132934570312 13.18084716796875 C 173.5601806640625 13.18084716796875 172.6174011230469 13.73336791992188 172.0110778808594 14.82302856445312 L 15.80300903320312 295.5668029785156 C 14.81390380859375 297.344482421875 15.58029174804688 299.0528564453125 15.9556884765625 299.7048645019531 C 16.33746337890625 300.3678588867188 17.4508056640625 301.9140930175781 19.53863525390625 301.9520263671875 L 342.1704711914062 307.8175659179688 C 343.6968383789062 307.8175659179688 344.5165100097656 306.9505310058594 344.9353637695312 306.22314453125 C 345.2803649902344 305.6240234375 345.9578552246094 304.0154724121094 344.8012390136719 302.0225830078125 L 178.4569549560547 15.41397094726562 C 177.2871856689453 13.39846801757812 175.5191345214844 13.18084716796875 174.8132934570312 13.18084716796875 M 174.8132934570312 3.18084716796875 C 179.527587890625 3.18084716796875 184.3220977783203 5.59796142578125 187.1057891845703 10.39425659179688 L 353.4500732421875 297.0028991699219 C 358.9276428222656 306.4405822753906 352.5130920410156 318.0080261230469 341.9092407226562 317.815185546875 L 19.35684204101562 311.9503479003906 C 8.752838134765625 311.757568359375 1.92083740234375 299.9492492675781 7.0645751953125 290.7046813964844 L 163.2726898193359 9.960906982421875 C 165.7939910888672 5.42950439453125 170.2663269042969 3.18084716796875 174.8132934570312 3.18084716796875 Z" stroke="none" fill="#ff0"/>
    </g>
  </g>
</svg>
