<svg xmlns="http://www.w3.org/2000/svg" width="247" height="255.601" viewBox="0 0 247 255.601">
  <g id="패스_25" data-name="패스 25" transform="matrix(0.53, -0.848, 0.848, 0.53, 8.432, 161.811)" fill="none" stroke-linecap="round" opacity="0.09">
    <path d="M88.345-.922c3.133-5.06,10.534-5.3,13.334-.433l85.159,148.063c2.8,4.876-1.11,11.217-7.042,11.41L-.658,163.981A7.054,7.054,0,0,1-6.949,153Z" stroke="none"/>
    <path d="M 95.06984710693359 7.2122802734375 L 4.310791015625 153.8146514892578 L 176.1770324707031 148.2299499511719 L 95.06984710693359 7.2122802734375 M 95.39981079101562 -4.866165161132812 C 97.90004730224609 -4.866165161132812 100.3256301879883 -3.707015991210938 101.6781005859375 -1.355484008789062 L 186.8375244140625 146.7076873779297 C 189.6417388916016 151.583251953125 185.7276000976562 157.9248657226562 179.795166015625 158.1176452636719 L -0.657867431640625 163.9813690185547 C -6.590728759765625 164.1741027832031 -10.0869140625 158.0733337402344 -6.949005126953125 153.0046844482422 L 88.34459686279297 -0.9222412109375 C 89.96395874023438 -3.537994384765625 92.72456359863281 -4.866165161132812 95.39981079101562 -4.866165161132812 Z" stroke="none" fill="#000f26"/>
  </g>
</svg>
