<svg xmlns="http://www.w3.org/2000/svg" width="636" height="549" viewBox="0 0 636 549">
  <g id="다각형_1" data-name="다각형 1" fill="none" stroke-linecap="round" opacity="0.38">
    <path d="M307.616,17.927a12,12,0,0,1,20.768,0L625.565,530.985A12,12,0,0,1,615.181,549H20.819a12,12,0,0,1-10.384-18.015Z" stroke="none"/>
    <path d="M 317.9999694824219 21.94146728515625 C 317.2350463867188 21.94146728515625 316.6528015136719 22.277099609375 316.2693481445312 22.93896484375 L 19.087890625 535.9976196289062 C 18.7034912109375 536.6611938476562 18.7027587890625 537.3343505859375 19.0858154296875 537.9987182617188 C 19.46868896484375 538.6630859375 20.05169677734375 539 20.81854248046875 539 L 615.181396484375 539 C 615.9482421875 539 616.53125 538.6631469726562 616.9141235351562 537.9988403320312 C 617.2971801757812 537.3343505859375 617.2964477539062 536.6610717773438 616.9121704101562 535.9976196289062 L 319.7305908203125 22.93896484375 C 319.3471374511719 22.277099609375 318.764892578125 21.94146728515625 317.9999694824219 21.94146728515625 M 317.9999694824219 11.94146728515625 C 322.0362548828125 11.94146728515625 326.072509765625 13.93658447265625 328.3837890625 17.92681884765625 L 625.5653076171875 530.9853515625 C 630.1990356445312 538.9852905273438 624.4266357421875 549 615.181396484375 549 L 20.81854248046875 549 C 11.57342529296875 549 5.80078125 538.9852905273438 10.4346923828125 530.9853515625 L 307.6161499023438 17.92681884765625 C 309.9274291992188 13.93658447265625 313.9636840820312 11.94146728515625 317.9999694824219 11.94146728515625 Z" stroke="none" fill="#fff"/>
  </g>
</svg>
