<svg xmlns="http://www.w3.org/2000/svg" width="650.558" height="672.824" viewBox="0 0 650.558 672.824">
  <g id="다각형_2" data-name="다각형 2" transform="matrix(0.53, -0.848, 0.848, 0.53, 0, 436.905)" fill="none" stroke-linecap="round" opacity="0.09">
    <path d="M247.208,17.951a12,12,0,0,1,20.773,0L504.768,427.189a12,12,0,0,1-10.387,18.01H20.807a12,12,0,0,1-10.387-18.01Z" stroke="none"/>
    <path d="M 257.5942687988281 21.9609375 C 256.8288879394531 21.9609375 256.2464599609375 22.29678344726562 255.8631896972656 22.95928955078125 L 19.07611083984375 432.19677734375 C 18.69210815429688 432.8603515625 18.69168090820312 433.5335693359375 19.07467651367188 434.1976318359375 C 19.45767211914062 434.8617248535156 20.04055786132812 435.1984252929688 20.80718994140625 435.1984252929688 L 494.3814697265625 435.1984252929688 C 495.1476745605469 435.1984252929688 495.73046875 434.8616333007812 496.1135559082031 434.1973571777344 C 496.4966125488281 433.5331420898438 496.496337890625 432.8600158691406 496.112548828125 432.19677734375 L 259.3254699707031 22.9593505859375 C 258.9421081542969 22.296875 258.3596801757812 21.9609375 257.5942687988281 21.9609375 M 257.5942687988281 11.9609375 C 261.6322631835938 11.9609375 265.6702880859375 13.95767211914062 267.98095703125 17.95114135742188 L 504.7681274414062 427.1886596679688 C 509.3969116210938 435.1886596679688 503.6377868652344 445.2040100097656 494.3814086914062 445.1984252929688 L 20.80718994140625 445.1984252929688 C 11.56454467773438 445.1985168457031 5.79168701171875 435.1886596679688 10.4205322265625 427.1886596679688 L 247.2076110839844 17.95114135742188 C 249.5182495117188 13.95767211914062 253.5562438964844 11.9609375 257.5942687988281 11.9609375 Z" stroke="none" fill="#ff0"/>
  </g>
</svg>
