<svg xmlns="http://www.w3.org/2000/svg" width="352.373" height="351.461" viewBox="0 0 352.373 351.461">
  <g id="다각형_3" data-name="다각형 3" transform="matrix(0.719, -0.695, 0.695, 0.719, 0, 185.721)" fill="none" stroke-linecap="round" opacity="0.25">
    <path d="M123.3,17.89a12,12,0,0,1,20.759,0L256.9,212.383a12,12,0,0,1-10.38,18.022H20.836a12,12,0,0,1-10.38-18.022Z" stroke="none"/>
    <path d="M 133.6781768798828 21.91197204589844 C 132.9138488769531 21.91197204589844 132.3318023681641 22.24717712402344 131.9482574462891 22.90830993652344 L 19.10580444335938 217.4011383056641 C 18.72079467773438 218.0646362304688 18.71975708007812 218.7381439208984 19.10260009765625 219.4029235839844 C 19.4854736328125 220.0676879882812 20.06855773925781 220.4047698974609 20.83572387695312 220.4047698974609 L 246.5206298828125 220.4047698974609 C 247.2877655029297 220.4047698974609 247.8708801269531 220.0676879882812 248.2537536621094 219.4029235839844 C 248.6366271972656 218.7381439208984 248.6355590820312 218.0646057128906 248.2505950927734 217.4010925292969 L 135.4080505371094 22.90826416015625 C 135.0245056152344 22.24717712402344 134.4424743652344 21.91197204589844 133.6781768798828 21.91197204589844 M 133.6781768798828 11.9119873046875 C 137.7118225097656 11.9119873046875 141.7454681396484 13.90461730957031 144.0576782226562 17.889892578125 L 256.9001770019531 212.3826751708984 C 261.5416259765625 220.3826446533203 255.7695922851562 230.4047698974609 246.5206298828125 230.4047698974609 L 20.83572387695312 230.4047698974609 C 11.58676147460938 230.4047698974609 5.814666748046875 220.3826446533203 10.45620727539062 212.3826751708984 L 123.2986297607422 17.889892578125 C 125.6108703613281 13.90461730957031 129.6445159912109 11.9119873046875 133.6781768798828 11.9119873046875 Z" stroke="none" fill="#967eab"/>
  </g>
</svg>
