<svg id="구성_요소_2_1" data-name="구성 요소 2 – 1" xmlns="http://www.w3.org/2000/svg" xmlns:xlink="http://www.w3.org/1999/xlink" width="128.905" height="83.684" viewBox="0 0 128.905 83.684">
  <defs>
    <clipPath id="clip-path">
      <rect id="사각형_3" data-name="사각형 3" width="128.905" height="83.684" fill="none"/>
    </clipPath>
  </defs>
  <g id="그룹_5" data-name="그룹 5" clip-path="url(#clip-path)">
    <path id="패스_16" data-name="패스 16" d="M87.9,92.762A9.507,9.507,0,0,1,83.59,97.2a11.306,11.306,0,0,1-6.366.858,3.939,3.939,0,0,1-1.325-.37,3.049,3.049,0,0,1-.925-.694,2.337,2.337,0,0,1-.506-.888,2.282,2.282,0,0,1-.07-.975,2.629,2.629,0,0,1,1.029-1.671,3.08,3.08,0,0,1,2.424-.429,4.8,4.8,0,0,0,2.058-.088,2.238,2.238,0,0,0,1.4-.947v-.029L74.19,78.539a2.515,2.515,0,0,1-.331-1.272,2.6,2.6,0,0,1,.3-1.152,2.9,2.9,0,0,1,.785-.932,3.537,3.537,0,0,1,1.2-.605,5.357,5.357,0,0,1,1.394-.236,4.2,4.2,0,0,1,1.378.162,3.34,3.34,0,0,1,1.168.621,3.008,3.008,0,0,1,.837,1.138l4.011,9.2,3.7-9.2a2.73,2.73,0,0,1,.8-1.138A3.329,3.329,0,0,1,90.6,74.5a4.064,4.064,0,0,1,1.343-.162,5.732,5.732,0,0,1,1.4.236,3.6,3.6,0,0,1,1.167.605,2.7,2.7,0,0,1,.767.932,2.575,2.575,0,0,1,.262,1.152,2.915,2.915,0,0,1-.314,1.272Z" transform="translate(-13.308 -22.675)" fill="#fff"/>
    <path id="패스_17" data-name="패스 17" d="M113.086,93.283a18.074,18.074,0,0,1-3.8-.414,11.125,11.125,0,0,1-3.47-1.361,7.093,7.093,0,0,1-3.471-6.416v-2.6a7.636,7.636,0,0,1,.925-3.933,7.486,7.486,0,0,1,2.373-2.513,9.737,9.737,0,0,1,3.208-1.346,15.555,15.555,0,0,1,3.436-.4,16.9,16.9,0,0,1,3.541.37,7.7,7.7,0,0,1,3.087,1.4,7.2,7.2,0,0,1,2.18,2.883,11.893,11.893,0,0,1,.82,4.775q0,.384-.052.916c-.035.355-.075.662-.122.917H109.249v.03a2.023,2.023,0,0,0,.384,1.27,3.019,3.019,0,0,0,.976.828,4.342,4.342,0,0,0,1.291.459,7.1,7.1,0,0,0,1.325.132,16.922,16.922,0,0,0,1.988-.088,8.861,8.861,0,0,0,1.4-.3c.256-.079.516-.162.785-.252a4.754,4.754,0,0,1,.854-.193,3.8,3.8,0,0,1,1.657.177,1.906,1.906,0,0,1,1.1.947,1.952,1.952,0,0,1,.017,2,4.17,4.17,0,0,1-1.8,1.523,7.744,7.744,0,0,1-1.063.414q-.646.208-1.465.385a17.425,17.425,0,0,1-1.744.281,16.8,16.8,0,0,1-1.866.1m-.767-14.193a4.745,4.745,0,0,0-1.134.132,2.655,2.655,0,0,0-.959.444,2.56,2.56,0,0,0-.7.8,2.428,2.428,0,0,0-.279,1.226h5.894a2.625,2.625,0,0,0-.192-1.226,2.211,2.211,0,0,0-.611-.8,2.33,2.33,0,0,0-.925-.444,4.6,4.6,0,0,0-1.1-.132" transform="translate(-18.441 -22.664)" fill="#fff"/>
    <path id="패스_18" data-name="패스 18" d="M147.142,53.877a5.521,5.521,0,0,1,1.235-4.027,4.054,4.054,0,0,1,5.809,0,5.528,5.528,0,0,1,1.233,4.027,7.6,7.6,0,0,1-.338,2.423,4.67,4.67,0,0,1-.9,1.627,3.269,3.269,0,0,1-1.313.913,4.557,4.557,0,0,1-3.183,0,3.25,3.25,0,0,1-1.312-.913,4.631,4.631,0,0,1-.9-1.627,7.6,7.6,0,0,1-.339-2.423" transform="translate(-26.513 -14.832)" fill="#fff"/>
    <path id="패스_19" data-name="패스 19" d="M153.93,67.921a3.613,3.613,0,0,0-6.122,2.959V92.209a3.278,3.278,0,0,0,1.064,2.714,4.157,4.157,0,0,0,5.057,0,3.278,3.278,0,0,0,1.064-2.714V70.88a3.742,3.742,0,0,0-1.064-2.959" transform="translate(-26.633 -20.433)" fill="#fff"/>
    <path id="패스_20" data-name="패스 20" d="M128.2,56.355a4.6,4.6,0,0,1,.362-1.886,3.718,3.718,0,0,1,.958-1.33,3.971,3.971,0,0,1,1.383-.771,5.375,5.375,0,0,1,1.681-.257,4.815,4.815,0,0,1,3.085,1.029,3.857,3.857,0,0,1,1.3,3.216V85.612a15.778,15.778,0,0,1-1.021,6,10.507,10.507,0,0,1-6.872,6.325,16.8,16.8,0,0,1-4.915.708,19.876,19.876,0,0,1-2.85-.215,14.814,14.814,0,0,1-2.873-.708,11.541,11.541,0,0,1-2.574-1.286,7.418,7.418,0,0,1-2-1.95,4.041,4.041,0,0,1-.616-1.33,4.231,4.231,0,0,1-.128-1.457,3.812,3.812,0,0,1,.383-1.372,2.772,2.772,0,0,1,.957-1.073,3.9,3.9,0,0,1,2.043-.835,5.916,5.916,0,0,1,2.085.149,2.909,2.909,0,0,1,1,.493,10.134,10.134,0,0,0,.872.622l.744.451a3.525,3.525,0,0,0,.7.321,4.6,4.6,0,0,0,.851.193,8.876,8.876,0,0,0,1.191.064,4.109,4.109,0,0,0,3.042-1.222q1.213-1.221,1.213-4.18Z" transform="translate(-20.379 -15.895)" fill="#fff"/>
    <path id="패스_21" data-name="패스 21" d="M23.915,55.534l96.98-.695v-.031c0-4.123-3.965-7.455-8.829-7.42l-85.965.63a2.041,2.041,0,0,0-2.186,1.854Z" transform="translate(-4.309 -14.455)" fill="#fff"/>
    <path id="패스_22" data-name="패스 22" d="M62.989,55.793l1.252-2.749,7.777-17.086,1.763-3.872L81.4,15.338a19.3,19.3,0,0,0,1.485-4.492,11.06,11.06,0,0,0,.127-3.6,5.7,5.7,0,0,0-1-2.58,4.021,4.021,0,0,0-1.891-1.414,4.746,4.746,0,0,0-2.5-.147,6.857,6.857,0,0,0-2.741,1.249,13.805,13.805,0,0,0-2.705,2.689,20.347,20.347,0,0,0-2.448,4.149L60.313,31.872,46.863,61.42,41.928,72.261a19.306,19.306,0,0,0-1.485,4.492,11.062,11.062,0,0,0-.126,3.606,5.68,5.68,0,0,0,1,2.58,4.016,4.016,0,0,0,1.891,1.414,4.757,4.757,0,0,0,2.5.147,6.843,6.843,0,0,0,2.742-1.25,13.783,13.783,0,0,0,2.705-2.688A20.347,20.347,0,0,0,53.6,76.413l4.635-10.182.374-.822.175-.386Z" transform="translate(-7.248 -0.915)" fill="#fff"/>
    <path id="패스_23" data-name="패스 23" d="M22.767,52.793l1.252-2.749L31.8,32.958l1.763-3.872,7.623-16.748a19.3,19.3,0,0,0,1.485-4.492,11.06,11.06,0,0,0,.127-3.6,5.7,5.7,0,0,0-1-2.58A4.021,4.021,0,0,0,39.9.247,4.746,4.746,0,0,0,37.4.1a6.857,6.857,0,0,0-2.741,1.249,13.8,13.8,0,0,0-2.705,2.689,20.347,20.347,0,0,0-2.448,4.149L20.091,28.872,6.641,58.42,1.706,69.261A19.306,19.306,0,0,0,.221,73.753,11.062,11.062,0,0,0,.1,77.359a5.68,5.68,0,0,0,1,2.58,4.016,4.016,0,0,0,1.891,1.414,4.757,4.757,0,0,0,2.5.147,6.843,6.843,0,0,0,2.742-1.25,13.784,13.784,0,0,0,2.705-2.688,20.347,20.347,0,0,0,2.448-4.149l4.635-10.182.374-.822.175-.386Z" transform="translate(0 0)" fill="#fff"/>
  </g>
</svg>
