<svg xmlns="http://www.w3.org/2000/svg" width="687.966" height="796.513" viewBox="0 0 687.966 796.513">
  <g id="그룹_14" data-name="그룹 14" transform="translate(-642 -222)">
    <g id="다각형_1" data-name="다각형 1" transform="translate(642 222)" fill="none" stroke-linecap="round" opacity="0.38">
      <path d="M307.616,17.927a12,12,0,0,1,20.768,0L625.565,530.985A12,12,0,0,1,615.181,549H20.819a12,12,0,0,1-10.384-18.015Z" stroke="none"/>
      <path d="M 317.9999694824219 21.94146728515625 C 317.2350463867188 21.94146728515625 316.6528015136719 22.277099609375 316.2693481445312 22.93896484375 L 19.087890625 535.9976196289062 C 18.7034912109375 536.6611938476562 18.7027587890625 537.3343505859375 19.0858154296875 537.9987182617188 C 19.46868896484375 538.6630859375 20.05169677734375 539 20.81854248046875 539 L 615.181396484375 539 C 615.9482421875 539 616.53125 538.6631469726562 616.9141235351562 537.9988403320312 C 617.2971801757812 537.3343505859375 617.2964477539062 536.6610717773438 616.9121704101562 535.9976196289062 L 319.7305908203125 22.93896484375 C 319.3471374511719 22.277099609375 318.764892578125 21.94146728515625 317.9999694824219 21.94146728515625 M 317.9999694824219 11.94146728515625 C 322.0362548828125 11.94146728515625 326.072509765625 13.93658447265625 328.3837890625 17.92681884765625 L 625.5653076171875 530.9853515625 C 630.1990356445312 538.9852905273438 624.4266357421875 549 615.181396484375 549 L 20.81854248046875 549 C 11.57342529296875 549 5.80078125 538.9852905273438 10.4346923828125 530.9853515625 L 307.6161499023438 17.92681884765625 C 309.9274291992188 13.93658447265625 313.9636840820312 11.94146728515625 317.9999694824219 11.94146728515625 Z" stroke="none" fill="#fff"/>
    </g>
    <g id="다각형_3" data-name="다각형 3" transform="matrix(0.719, -0.695, 0.695, 0.719, 642, 748.991)" fill="none" stroke-linecap="round" opacity="0.25">
      <path d="M123.3,17.89a12,12,0,0,1,20.759,0L256.9,212.383a12,12,0,0,1-10.38,18.022H20.836a12,12,0,0,1-10.38-18.022Z" stroke="none"/>
      <path d="M 133.6781768798828 21.91197204589844 C 132.9138488769531 21.91197204589844 132.3318023681641 22.24717712402344 131.9482574462891 22.90830993652344 L 19.10580444335938 217.4011383056641 C 18.72079467773438 218.0646362304688 18.71975708007812 218.7381439208984 19.10260009765625 219.4029235839844 C 19.4854736328125 220.0676879882812 20.06855773925781 220.4047698974609 20.83572387695312 220.4047698974609 L 246.5206298828125 220.4047698974609 C 247.2877655029297 220.4047698974609 247.8708801269531 220.0676879882812 248.2537536621094 219.4029235839844 C 248.6366271972656 218.7381439208984 248.6355590820312 218.0646057128906 248.2505950927734 217.4010925292969 L 135.4080505371094 22.90826416015625 C 135.0245056152344 22.24717712402344 134.4424743652344 21.91197204589844 133.6781768798828 21.91197204589844 M 133.6781768798828 11.9119873046875 C 137.7118225097656 11.9119873046875 141.7454681396484 13.90461730957031 144.0576782226562 17.889892578125 L 256.9001770019531 212.3826751708984 C 261.5416259765625 220.3826446533203 255.7695922851562 230.4047698974609 246.5206298828125 230.4047698974609 L 20.83572387695312 230.4047698974609 C 11.58676147460938 230.4047698974609 5.814666748046875 220.3826446533203 10.45620727539062 212.3826751708984 L 123.2986297607422 17.889892578125 C 125.6108703613281 13.90461730957031 129.6445159912109 11.9119873046875 133.6781768798828 11.9119873046875 Z" stroke="none" fill="#967eab"/>
    </g>
    <g id="다각형_2" data-name="다각형 2" transform="matrix(0.53, -0.848, 0.848, 0.53, 679.408, 782.593)" fill="none" stroke-linecap="round" opacity="0.09">
      <path d="M247.208,17.951a12,12,0,0,1,20.773,0L504.768,427.189a12,12,0,0,1-10.387,18.01H20.807a12,12,0,0,1-10.387-18.01Z" stroke="none"/>
      <path d="M 257.5942687988281 21.9609375 C 256.8288879394531 21.9609375 256.2464599609375 22.29678344726562 255.8631896972656 22.95928955078125 L 19.07611083984375 432.19677734375 C 18.69210815429688 432.8603515625 18.69168090820312 433.5335693359375 19.07467651367188 434.1976318359375 C 19.45767211914062 434.8617248535156 20.04055786132812 435.1984252929688 20.80718994140625 435.1984252929688 L 494.3814697265625 435.1984252929688 C 495.1476745605469 435.1984252929688 495.73046875 434.8616333007812 496.1135559082031 434.1973571777344 C 496.4966125488281 433.5331420898438 496.496337890625 432.8600158691406 496.112548828125 432.19677734375 L 259.3254699707031 22.9593505859375 C 258.9421081542969 22.296875 258.3596801757812 21.9609375 257.5942687988281 21.9609375 M 257.5942687988281 11.9609375 C 261.6322631835938 11.9609375 265.6702880859375 13.95767211914062 267.98095703125 17.95114135742188 L 504.7681274414062 427.1886596679688 C 509.3969116210938 435.1886596679688 503.6377868652344 445.2040100097656 494.3814086914062 445.1984252929688 L 20.80718994140625 445.1984252929688 C 11.56454467773438 445.1985168457031 5.79168701171875 435.1886596679688 10.4205322265625 427.1886596679688 L 247.2076110839844 17.95114135742188 C 249.5182495117188 13.95767211914062 253.5562438964844 11.9609375 257.5942687988281 11.9609375 Z" stroke="none" fill="#ff0"/>
    </g>
  </g>
</svg>
