<svg xmlns="http://www.w3.org/2000/svg" xmlns:xlink="http://www.w3.org/1999/xlink" width="30" height="30" viewBox="0 0 30 30">
  <defs>
    <clipPath id="clip-path">
      <rect id="사각형_19" data-name="사각형 19" width="18.798" height="15.038" fill="#7e56a5"/>
    </clipPath>
  </defs>
  <g id="그룹_35" data-name="그룹 35" transform="translate(-14 -31)">
    <g id="그룹_33" data-name="그룹 33" transform="translate(19.601 38.507)">
      <g id="그룹_32" data-name="그룹 32" transform="translate(0 0)" clip-path="url(#clip-path)">
        <path id="패스_26" data-name="패스 26" d="M53.438,3.822a2.156,2.156,0,0,1,.129-.776,1.541,1.541,0,0,1,.341-.547,1.376,1.376,0,0,1,.492-.317,1.677,1.677,0,0,1,.6-.106,1.57,1.57,0,0,1,1.1.423,1.712,1.712,0,0,1,.462,1.323v7.461a7.411,7.411,0,0,1-.363,2.47A4.505,4.505,0,0,1,55.2,15.42a3.754,3.754,0,0,1-1.454.935,5.22,5.22,0,0,1-1.75.291,6.2,6.2,0,0,1-1.015-.088,4.725,4.725,0,0,1-1.022-.291,3.975,3.975,0,0,1-.917-.529,2.879,2.879,0,0,1-.712-.8,1.792,1.792,0,0,1-.219-.547,2.005,2.005,0,0,1-.046-.6,1.761,1.761,0,0,1,.136-.564,1.1,1.1,0,0,1,.341-.441,1.289,1.289,0,0,1,.727-.344,1.834,1.834,0,0,1,.742.062.973.973,0,0,1,.356.2,3.756,3.756,0,0,0,.311.256l.265.185a1.174,1.174,0,0,0,.25.132,1.465,1.465,0,0,0,.3.079,2.794,2.794,0,0,0,.424.026,1.368,1.368,0,0,0,1.083-.5,2.658,2.658,0,0,0,.432-1.72Z" transform="translate(-37.761 -1.608)" fill="#7e56a5"/>
        <path id="패스_27" data-name="패스 27" d="M10.17,1.056A1.731,1.731,0,0,0,9.814.473,1.485,1.485,0,0,0,9.3.118,1.552,1.552,0,0,0,8.706,0a1.609,1.609,0,0,0-.6.118,1.394,1.394,0,0,0-.511.355,1.8,1.8,0,0,0-.349.582,2.243,2.243,0,0,0-.132.8V5.68H3.191V1.857a2.253,2.253,0,0,0-.132-.8A1.731,1.731,0,0,0,2.7.473,1.485,1.485,0,0,0,2.192.118,1.551,1.551,0,0,0,1.6,0a1.607,1.607,0,0,0-.6.118A1.391,1.391,0,0,0,.48.473a1.792,1.792,0,0,0-.349.582,2.248,2.248,0,0,0-.132.8V13.181a2.248,2.248,0,0,0,.132.8,1.731,1.731,0,0,0,.356.582A1.481,1.481,0,0,0,1,14.92a1.548,1.548,0,0,0,.6.118,1.6,1.6,0,0,0,.6-.118,1.391,1.391,0,0,0,.511-.355,1.8,1.8,0,0,0,.349-.582,2.243,2.243,0,0,0,.132-.8V8.848H7.111v4.333a2.253,2.253,0,0,0,.132.8,1.731,1.731,0,0,0,.356.582,1.481,1.481,0,0,0,.511.355,1.547,1.547,0,0,0,.6.118,1.6,1.6,0,0,0,.6-.118,1.388,1.388,0,0,0,.511-.355,1.787,1.787,0,0,0,.349-.582,2.243,2.243,0,0,0,.132-.8V1.857a2.248,2.248,0,0,0-.132-.8" transform="translate(0 0)" fill="#7e56a5"/>
      </g>
    </g>
    <g id="타원_1" data-name="타원 1" transform="translate(14 31)" fill="none" stroke="#7e56a5" stroke-width="2">
      <circle cx="15" cy="15" r="15" stroke="none"/>
      <circle cx="15" cy="15" r="14" fill="none"/>
    </g>
  </g>
</svg>
